<svg width="20" height="19" viewBox="0 0 20 19" fill="none" xmlns="http://www.w3.org/2000/svg">
<path d="M13.6585 1.54725C14.7231 1.55031 15.7431 1.95889 16.4958 2.68376C17.2486 3.40863 17.6729 4.39088 17.6761 5.41599V13.1527C17.6729 14.1778 17.2486 15.16 16.4958 15.8849C15.7431 16.6098 14.7231 17.0183 13.6585 17.0214H5.6243C4.55976 17.0183 3.53973 16.6098 2.78698 15.8849C2.03423 15.16 1.60994 14.1778 1.60676 13.1527V5.41599C1.60994 4.39088 2.03423 3.40863 2.78698 2.68376C3.53973 1.95889 4.55976 1.55031 5.6243 1.54725H13.6585ZM13.6585 0H5.6243C2.53087 0 0 2.43713 0 5.41599V13.1527C0 16.1315 2.53087 18.5686 5.6243 18.5686H13.6585C16.752 18.5686 19.2828 16.1315 19.2828 13.1527V5.41599C19.2828 2.43713 16.752 0 13.6585 0Z" fill="white"/>
<path d="M14.8638 5.4163C14.6254 5.4163 14.3924 5.34823 14.1942 5.22071C13.996 5.09319 13.8416 4.91194 13.7504 4.69988C13.6591 4.48781 13.6353 4.25447 13.6818 4.02935C13.7283 3.80422 13.8431 3.59743 14.0116 3.43513C14.1802 3.27283 14.3949 3.16229 14.6287 3.11751C14.8625 3.07274 15.1048 3.09572 15.325 3.18356C15.5452 3.27139 15.7334 3.42014 15.8659 3.61099C15.9983 3.80184 16.069 4.02622 16.069 4.25576C16.0693 4.40825 16.0384 4.55931 15.9779 4.70026C15.9175 4.84121 15.8287 4.96928 15.7167 5.07711C15.6048 5.18494 15.4718 5.27042 15.3254 5.32862C15.179 5.38683 15.0222 5.41662 14.8638 5.4163ZM9.64151 6.18971C10.2772 6.18971 10.8986 6.37123 11.4271 6.7113C11.9556 7.05137 12.3676 7.53473 12.6108 8.10026C12.8541 8.66578 12.9177 9.28806 12.7937 9.88841C12.6697 10.4888 12.3636 11.0402 11.9141 11.4731C11.4646 11.9059 10.892 12.2007 10.2685 12.3201C9.64507 12.4395 8.99886 12.3782 8.41158 12.144C7.82431 11.9097 7.32236 11.513 6.96921 11.0041C6.61606 10.4951 6.42756 9.89674 6.42756 9.28463C6.42847 8.46407 6.76738 7.67738 7.36991 7.09716C7.97245 6.51694 8.7894 6.19059 9.64151 6.18971ZM9.64151 4.64246C8.68806 4.64246 7.75603 4.91472 6.96327 5.42481C6.17051 5.9349 5.55263 6.6599 5.18776 7.50815C4.82289 8.35639 4.72742 9.28978 4.91343 10.1903C5.09944 11.0908 5.55857 11.9179 6.23275 12.5671C6.90694 13.2163 7.76591 13.6585 8.70104 13.8376C9.63616 14.0167 10.6054 13.9248 11.4863 13.5734C12.3672 13.2221 13.1201 12.6271 13.6498 11.8637C14.1795 11.1003 14.4622 10.2028 14.4622 9.28463C14.4622 8.05345 13.9543 6.8727 13.0503 6.00212C12.1462 5.13155 10.92 4.64246 9.64151 4.64246Z" fill="white"/>
</svg>
